<svg width="193" height="233" viewBox="0 0 193 233" fill="none" xmlns="http://www.w3.org/2000/svg">
<path d="M182.982 19.7526C164.593 -5.77193 137.009 -1.91917 130.325 5.7493C130.325 5.7493 107.571 -3.77146 91.3836 17.9003C73.3035 42.1282 47.4581 72.8762 33.898 114.96C20.6856 155.933 42.8995 163.898 42.8995 163.898C42.8995 163.898 36.2933 179.901 36.8728 199.091C37.5681 221.541 70.8696 232.21 81.455 232.173C91.1518 233.581 103.978 230.988 117.19 221.096C142.765 201.981 183.291 127 185.995 112.441C188.738 97.7339 174.135 82.8786 174.135 82.8786C174.135 82.8786 174.096 82.9527 174.058 83.0268C174.096 82.9156 174.135 82.8786 174.135 82.8786C174.135 82.8786 200.83 44.5733 182.982 19.7526Z" fill="#F0F0E7"/>
<mask id="mask0_8_4563" style="mask-type:alpha" maskUnits="userSpaceOnUse" x="29" y="0" width="161" height="233">
<path d="M182.982 19.7526C164.593 -5.77193 137.009 -1.91917 130.325 5.7493C130.325 5.7493 107.571 -3.77146 91.3836 17.9003C73.3035 42.1282 47.4581 72.8762 33.898 114.96C20.6856 155.933 42.8995 163.898 42.8995 163.898C42.8995 163.898 36.2933 179.901 36.8728 199.091C37.5681 221.541 70.8696 232.21 81.455 232.173C91.1518 233.581 103.978 230.988 117.19 221.096C142.765 201.981 183.291 127 185.995 112.441C188.738 97.7339 174.135 82.8786 174.135 82.8786C174.135 82.8786 174.096 82.9527 174.058 83.0268C174.096 82.9156 174.135 82.8786 174.135 82.8786C174.135 82.8786 200.83 44.5733 182.982 19.7526Z" fill="#F0F0E7"/>
</mask>
<g mask="url(#mask0_8_4563)">
<path d="M131.291 126.852C131.291 126.852 127.776 127.926 122.174 128.667C116.572 129.408 115.529 129.297 115.529 129.297L114.679 136.632L120.783 226.505C120.783 226.505 127.39 230.098 136.352 231.951C136.352 231.951 139.25 188.311 137.511 168.936C135.811 149.746 131.291 126.852 131.291 126.852Z" fill="#FFC633"/>
<path d="M83.0007 101.661H21.9609V50.7598C21.9609 34.6079 35.6369 21.4937 52.4808 21.4937C69.3247 21.4937 83.0007 34.6079 83.0007 50.7598V101.661Z" fill="#E4F0EF"/>
<path d="M52.4808 24.8278C67.3931 24.8278 79.5238 36.4601 79.5238 50.7598V98.3266H25.4379V50.7598C25.4379 36.4601 37.5686 24.8278 52.4808 24.8278ZM52.4808 21.4937C35.6369 21.4937 21.9609 34.6079 21.9609 50.7598V101.624H83.0007V50.7598C83.0007 34.6079 69.3247 21.4937 52.4808 21.4937Z" fill="#93CAD0"/>
<path d="M22.6177 45.0177L25.7856 46.4995C27.9104 34.2374 39.0753 24.8278 52.4809 24.8278V21.4937C37.6845 21.4937 25.3607 31.5701 22.5791 44.9436C22.5791 45.0177 22.6177 45.0177 22.6177 45.0177Z" fill="#C2E1E4"/>
<path d="M52.4807 28.6805C65.1522 28.6805 75.5058 38.5717 75.5058 50.7598V94.4368H29.4556V50.7598C29.4556 38.6088 39.8091 28.6805 52.4807 28.6805ZM52.4807 24.8278C37.5684 24.8278 25.4377 36.4601 25.4377 50.7598V98.3266H79.5623V50.7598C79.5236 36.4601 67.3929 24.8278 52.4807 24.8278Z" fill="#C2E1E4"/>
<path d="M54.5284 26.4208H50.4719V98.3266H54.5284V26.4208Z" fill="#C2E1E4"/>
<path d="M79.5623 63.17H25.4377V67.0598H79.5623V63.17Z" fill="#C2E1E4"/>
<path d="M75.3126 48.0554L75.5057 48.2036L79.1758 46.4995C77.051 34.2374 65.8862 24.8278 52.4806 24.8278V28.7176C64.225 28.6805 73.9218 37.164 75.3126 48.0554Z" fill="#A8D4DA"/>
<g style="mix-blend-mode:multiply" opacity="0.7">
<g opacity="0.7">
<path opacity="0.7" d="M75.0038 31.0144L38.1095 94.7702H46.4928L79.9874 38.1642C78.7125 35.534 77.0127 33.126 75.0038 31.0144Z" fill="#C4E2E5"/>
</g>
</g>
<path d="M82.3437 45.0177L79.1758 46.4995C77.051 34.2374 65.8862 24.8278 52.4806 24.8278V21.4937C67.2769 21.4937 79.6008 31.5701 82.3824 44.9436C82.3824 45.0177 82.3437 45.0177 82.3437 45.0177Z" fill="#7BBEC5"/>
<path d="M50.4719 63.1701L52.4808 65.1335V28.236H50.4719V63.1701Z" fill="#DAEDEF"/>
<path d="M29.6484 48.0554L29.4553 48.2036L25.7852 46.4995C27.91 34.2374 39.0748 24.8278 52.4804 24.8278V28.7176C40.736 28.6805 31.0392 37.164 29.6484 48.0554Z" fill="#93CAD0"/>
<path d="M29.4556 94.4369L25.4377 98.3267H79.5236L75.5058 94.4369H29.4556Z" fill="#A8D4DA"/>
<path d="M50.4719 67.0599L52.4808 65.1335V96.1038L50.4719 94.4367V67.0599Z" fill="#93CAD0"/>
<path d="M40.5432 65.1335H40.0796H27.4467L29.4556 67.0599H40.0796H40.5432H50.4718L52.4807 65.1335H40.5432Z" fill="#7BBEC5"/>
<path d="M65.5771 65.1335H65.1135H52.4806L54.4895 63.17H65.1135H65.5771H75.5057L77.5146 65.1335H65.5771Z" fill="#F2FFFF"/>
<path d="M167.336 101.661H106.296V50.7598C106.296 34.6079 119.972 21.4937 136.816 21.4937C153.66 21.4937 167.336 34.6079 167.336 50.7598V101.661Z" fill="#E4F0EF"/>
<path d="M136.816 24.8278C151.728 24.8278 163.859 36.4601 163.859 50.7598V98.3266H109.773V50.7598C109.773 36.4601 121.904 24.8278 136.816 24.8278ZM136.816 21.4937C119.972 21.4937 106.296 34.6079 106.296 50.7598V101.624H167.336V50.7598C167.336 34.6079 153.66 21.4937 136.816 21.4937Z" fill="#93CAD0"/>
<path d="M106.953 45.0177L110.121 46.4995C112.246 34.2004 123.411 24.8278 136.816 24.8278V21.4937C122.02 21.4937 109.696 31.5701 106.914 44.9436C106.953 45.0177 106.953 45.0177 106.953 45.0177Z" fill="#C2E1E4"/>
<path d="M136.816 28.6805C149.488 28.6805 159.841 38.5717 159.841 50.7598V94.4368H113.791V50.7598C113.791 38.6088 124.144 28.6805 136.816 28.6805ZM136.816 24.8278C121.904 24.8278 109.773 36.4601 109.773 50.7598V98.3266H163.898V50.7598C163.859 36.4601 151.728 24.8278 136.816 24.8278Z" fill="#C2E1E4"/>
<path d="M138.864 26.4208H134.807V98.3266H138.864V26.4208Z" fill="#C2E1E4"/>
<path d="M163.898 63.17H109.773V67.0598H163.898V63.17Z" fill="#C2E1E4"/>
<path d="M159.648 48.0554L159.841 48.2036L163.511 46.4995C161.386 34.2374 150.221 24.8278 136.816 24.8278V28.7176C148.56 28.6805 158.257 37.164 159.648 48.0554Z" fill="#A8D4DA"/>
<g style="mix-blend-mode:multiply" opacity="0.7">
<g style="mix-blend-mode:multiply" opacity="0.7">
<path opacity="0.7" d="M158.953 30.6069H154.471L117.616 94.3627H131.446L164.284 37.942C162.893 35.2377 161.078 32.7926 158.953 30.6069Z" fill="#C4E2E5"/>
</g>
</g>
<g style="mix-blend-mode:multiply" opacity="0.7">
<g style="mix-blend-mode:multiply" opacity="0.7">
<path opacity="0.7" d="M167.336 50.7599C167.336 47.8703 166.872 45.0548 166.061 42.4246L136.005 94.3627H146.976L167.336 57.4651V50.7599Z" fill="#C4E2E5"/>
</g>
</g>
<path d="M134.807 63.1701L136.816 65.1335V28.236H134.807V63.1701Z" fill="#F2FFFF"/>
<path d="M113.984 48.0554L113.791 48.2036L110.121 46.4995C112.246 34.2003 123.411 24.8278 136.816 24.8278V28.7176C125.11 28.6805 115.375 37.164 113.984 48.0554Z" fill="#93CAD0"/>
<path d="M113.791 94.4369L109.773 98.3267H163.859L159.841 94.4369H113.791Z" fill="#A8D4DA"/>
<path d="M134.807 67.0599L136.816 65.1335V96.1038L134.807 94.4367V67.0599Z" fill="#93CAD0"/>
<path d="M124.878 65.1335H124.453H111.782L113.791 67.0599H124.453H124.878H134.807L136.816 65.1335H124.878Z" fill="#7BBEC5"/>
<path d="M149.912 65.1335H149.487H136.816L138.825 63.17H149.487H149.912H159.841L161.85 65.1335H149.912Z" fill="#F2FFFF"/>
</g>
<g clip-path="url(#clip0_8_4563)">
<path d="M30.7867 92.4424C29.9248 90.033 29.7093 87.9144 29.7093 87.9144C29.7093 87.9144 29.537 90.033 28.632 92.4424C27.727 94.8518 25.6154 96.1396 25.6154 96.1396C28.9336 97.7182 29.7093 103.285 29.7093 103.285C29.7093 103.285 30.4419 97.7182 33.8033 96.1396C33.8033 96.1396 31.6917 94.8518 30.7867 92.4424Z" fill="#FFC633"/>
<path d="M19.7545 99.2552C19.2805 97.9259 19.1512 96.7628 19.1512 96.7628C19.1512 96.7628 19.065 97.9259 18.591 99.2552C18.0738 100.585 16.9103 101.291 16.9103 101.291C18.7633 102.163 19.1512 105.237 19.1512 105.237C19.1512 105.237 19.5821 102.163 21.3921 101.291C21.4352 101.291 20.2286 100.585 19.7545 99.2552Z" fill="#FFC633"/>
<path d="M23.1592 87.1252C22.6851 85.7958 22.5559 84.6327 22.5559 84.6327C22.5559 84.6327 22.4697 85.7958 21.9525 87.1252C21.4354 88.4545 20.2719 89.1607 20.2719 89.1607C22.1249 90.0331 22.5128 93.1071 22.5128 93.1071C22.5128 93.1071 22.9437 90.0331 24.7537 89.1607C24.8399 89.1607 23.6332 88.496 23.1592 87.1252Z" fill="#FFC633"/>
</g>
<g style="mix-blend-mode:multiply" opacity="0.7">
<g style="mix-blend-mode:multiply" opacity="0.7">
<path opacity="0.7" d="M83.0006 50.7598C83.0006 47.7221 82.537 44.7955 81.6099 42.0541L51.3218 94.4368H62.2935L83.0006 56.8724V50.7598Z" fill="#C4E2E5"/>
</g>
</g>
<path d="M192.022 49.3521H174.097V72.1722H192.022V49.3521Z" fill="#C2E1E4"/>
<path d="M188.391 53.9086H177.69V67.5785H188.391V53.9086Z" fill="#E4F0EF"/>
<path d="M188.391 67.5785L190.786 71.0237H175.256L177.69 67.5785H188.391Z" fill="#F2FFFF"/>
<path d="M188.391 53.8345L190.786 50.3893H175.256L177.69 53.8345H188.391Z" fill="#A8D4DA"/>
<path d="M41.856 107.44C41.856 107.44 38.9199 107.144 36.602 106.958C34.284 106.773 29.0686 108.366 28.2959 108.699C27.5233 108.996 21.8056 112.108 19.14 111.552C16.4743 110.996 15.7789 110.774 15.1608 111.626C14.504 112.478 18.2514 114.479 19.6035 115.071C20.9557 115.664 26.4802 115.701 27.7937 115.886C29.0686 116.072 32.5069 113.219 32.9319 113.108C33.3954 112.997 42.59 115.145 43.44 115.071C44.2513 114.997 41.856 107.44 41.856 107.44Z" fill="#FFCC99"/>
<path d="M38.573 107.144L40.6978 107.329C40.6978 107.329 40.8137 111.959 41.1228 113.515C41.2773 114.293 41.0455 114.664 41.0455 114.664L38.9207 114.256C38.9207 114.219 37.3754 109.7 38.573 107.144Z" fill="#FFA74F"/>
<path d="M83.7341 74.8027C85.4726 72.5799 89.22 67.6158 91.7697 66.8749C94.3195 66.134 113.868 61.0587 123.912 63.5408C133.957 66.0228 135.85 71.2833 138.67 75.3954C140.717 78.3591 155.127 103.55 156.093 107.44C157.059 111.33 156.673 113.738 153.968 116.701C151.264 119.665 143.151 122.814 143.151 122.814L143.538 127.63C143.538 127.63 115.143 132.261 107.03 130.779C98.9168 129.297 98.9168 129.297 98.9168 129.297L90.2631 99.1418C90.2631 99.1418 75.3508 116.701 70.7149 118.554C66.0789 120.406 42.7061 115.961 42.7061 115.961C42.7061 115.961 41.5471 113.441 41.9335 106.773C41.9335 106.773 60.3999 108.44 63.1815 107.44C65.963 106.44 67.8174 104.921 67.8174 104.921C67.8174 104.921 76.8188 83.5825 83.7341 74.8027Z" fill="#5041FF"/>
<path d="M88.1001 91.0657C88.1001 91.0657 85.3185 92.7698 85.5117 96.178C85.7049 99.5862 86.7093 103.217 86.7093 103.217L90.2635 99.1417L88.1001 91.0657Z" fill="#2970FF"/>
<path d="M95.3243 73.9876C95.3243 73.9876 95.1697 78.4331 96.6378 79.2852C98.1058 80.1372 99.3421 78.6183 99.6898 78.2108C99.6898 78.2108 102.742 78.6554 103.823 77.581C104.905 76.5067 103.321 73.4319 101.235 73.6912C99.1489 73.9876 95.3243 73.9876 95.3243 73.9876Z" fill="#2970FF"/>
<path d="M102.162 124.37C102.162 124.37 101.892 125.852 103.36 127.334C104.828 128.815 109.116 129.038 109.116 129.038L109.425 126L102.162 124.37Z" fill="#4338CA"/>
<path d="M118.89 114.442C118.89 114.442 124.84 112.997 129.282 110.404C133.725 107.81 135.386 108.44 135.116 110.404C134.845 112.367 133.957 114.442 133.957 114.442H118.89Z" fill="#4338CA"/>
<path d="M112.323 122.666C112.168 122.666 112.014 122.555 111.936 122.406C111.859 122.11 103.399 93.3254 101.39 86.6201C99.3808 79.8778 99.149 72.4316 99.149 72.3575C99.149 72.1352 99.3036 71.9871 99.5354 71.9871C99.7672 71.9871 99.9217 72.1352 99.9217 72.3575C99.9217 72.4316 100.153 79.8037 102.162 86.4349C104.171 93.1031 112.593 121.925 112.709 122.221C112.748 122.406 112.632 122.629 112.439 122.666C112.4 122.666 112.361 122.666 112.323 122.666Z" fill="#2970FF"/>
<path d="M90.2633 99.5121C90.1088 99.5121 89.9156 99.401 89.877 99.2157L85.3956 82.5452C85.357 82.3599 85.4729 82.1376 85.666 82.1006C85.8592 82.0636 86.091 82.1747 86.1296 82.3599L90.611 99.0676C90.6496 99.2528 90.5337 99.4751 90.3406 99.5121C90.3406 99.5121 90.302 99.5121 90.2633 99.5121Z" fill="#2970FF"/>
<path d="M136.777 114.108C136.661 114.108 136.545 114.071 136.468 113.96C136.352 113.812 136.352 113.552 136.545 113.441C137.048 113.034 138.438 111.848 138.747 111.033C138.979 110.329 138.052 107.514 137.395 105.921C134.923 99.6973 125.883 75.7658 125.805 75.5435C125.728 75.3583 125.844 75.136 126.037 75.0619C126.23 74.9878 126.462 75.0989 126.539 75.2842C126.617 75.5065 135.657 99.438 138.129 105.662C138.438 106.403 139.906 110.107 139.481 111.293C139.057 112.478 137.125 113.997 137.048 114.071C136.932 114.108 136.854 114.108 136.777 114.108Z" fill="#2970FF"/>
<path d="M58.7394 157.859C58.7394 157.859 64.9206 152.858 70.3292 156.007C75.7378 159.156 75.7378 165.454 75.7378 165.454C75.7378 165.454 80.1806 160.082 83.6575 163.231C87.1345 166.38 88.1003 178.16 88.1003 178.16C88.1003 178.16 91.9636 173.048 94.2815 175.085C96.5995 177.123 93.1226 198.424 93.1226 198.424L58.7394 157.859Z" fill="#5041FF"/>
<path d="M16.05 191.978C16.05 191.978 9.86874 193.868 7.55077 200.203C5.23281 206.574 11.8776 205.908 16.05 202.018C20.2223 198.128 20.57 195.238 20.57 195.238C20.57 195.238 17.6726 202.129 22.888 202.722C28.1034 203.314 29.2624 195.979 29.4556 194.979C29.4556 194.979 29.0692 199.425 35.7141 198.869C42.3589 198.313 46.2222 194.609 46.2222 194.609C46.2222 194.609 29.4556 191.089 16.05 191.978Z" fill="#6366F1" fill-opacity="0.5"/>
<path d="M16.05 191.978C16.05 191.978 8.78702 189.348 10.6414 186.199C12.4958 183.05 19.1406 186.755 20.4927 188.496C20.4927 188.496 19.411 185.384 22.0381 184.94C24.6651 184.495 28.9147 189.496 28.9147 189.496C28.9147 189.496 30.9236 186.088 35.0187 186.718C39.1137 187.348 46.2994 194.609 46.2994 194.609C46.2994 194.609 31.3872 192.275 16.05 191.978Z" fill="#5041FF"/>
<path d="M85.3956 205.241C85.357 205.241 85.3183 205.241 85.2411 205.204C84.9706 205.093 57.1937 194.646 29.3008 193.016C17.5564 192.349 10.3708 192.942 6.43021 193.608C2.14197 194.312 0.635294 195.164 0.596662 195.164C0.403498 195.275 0.171701 195.201 0.0558029 195.053C-0.0600954 194.868 0.0171701 194.646 0.171701 194.535C0.248967 194.497 1.75564 193.608 6.15978 192.867C10.139 192.201 17.4019 191.571 29.3394 192.275C57.3482 193.905 85.2411 204.389 85.5115 204.5C85.7047 204.574 85.8206 204.796 85.7433 204.981C85.7047 205.167 85.5501 205.241 85.3956 205.241Z" fill="#2970FF"/>
<path d="M98.9169 201.277C98.9169 201.277 87.6362 186.125 80.5664 182.717C73.5352 179.309 69.4401 185.051 70.7923 188.792C70.7923 188.792 61.6749 184.347 54.8756 188.311C48.0762 192.275 57.0776 199.536 63.3362 199.573C63.3362 199.573 57.9662 203.055 60.0137 206.834C62.0613 210.612 71.0627 211.353 78.9052 210.094C85.5886 209.019 91.8858 206.167 91.8858 206.167L98.9169 201.277Z" fill="#5041FF"/>
<path d="M78.3643 174.604C78.3257 174.604 78.3257 174.604 78.2871 174.604C78.0939 174.567 77.9394 174.382 77.978 174.159C78.9825 169.492 80.7596 168.417 80.8368 168.38C81.03 168.269 81.2618 168.343 81.3777 168.491C81.4936 168.677 81.4163 168.899 81.2618 169.01C81.2232 169.047 79.6778 170.047 78.7507 174.308C78.712 174.493 78.5575 174.604 78.3643 174.604Z" fill="#2970FF"/>
<path d="M65.4223 164.046C65.3837 164.046 65.3837 164.046 65.3451 164.046C65.1519 164.009 64.9974 163.824 65.036 163.601C66.0404 158.934 67.8175 157.859 67.8948 157.822C68.088 157.711 68.3198 157.785 68.4357 157.933C68.5516 158.119 68.4743 158.341 68.3198 158.452C68.2811 158.489 66.7358 159.489 65.8086 163.75C65.77 163.935 65.6155 164.046 65.4223 164.046Z" fill="#2970FF"/>
<path d="M91.1904 191.163C91.1904 191.163 88.293 183.754 76.3168 171.714C64.3407 159.674 58.7389 157.859 58.7389 157.859C58.7389 157.859 52.1713 164.342 57.1936 169.343C61.1728 173.307 67.8176 172.863 67.8176 172.863C67.8176 172.863 59.5888 173.863 59.1252 179.346C58.4298 187.607 75.7373 186.57 75.7373 186.57C75.7373 186.57 71.1014 187.125 71.874 191.2C72.6467 195.275 93.1221 198.424 93.1221 198.424L91.1904 191.163Z" fill="#6366F1" fill-opacity="0.5"/>
<path d="M96.8312 203.092C96.7925 203.092 96.7539 203.092 96.7153 203.092C96.4835 203.018 74.7719 196.535 66.968 194.609L59.0483 192.682C58.8552 192.645 58.7006 192.423 58.7779 192.238C58.8552 192.052 59.0483 191.904 59.2415 191.978L67.1612 193.905C75.0036 195.831 96.7539 202.351 96.9471 202.388C97.1402 202.462 97.2561 202.647 97.2175 202.87C97.1402 202.981 96.9857 203.092 96.8312 203.092Z" fill="#4338CA"/>
<path d="M98.2219 126.852C98.2219 126.852 101.737 127.926 107.339 128.667C112.941 129.408 113.984 129.297 113.984 129.297L114.834 136.632L108.73 226.505C108.73 226.505 102.124 230.098 93.161 231.951C93.161 231.951 90.2635 188.311 92.002 168.936C93.7019 149.746 98.2219 126.852 98.2219 126.852Z" fill="#FFC633"/>
<path d="M106.876 159.6C106.721 159.6 106.567 159.526 106.528 159.378C102.781 150.598 102.124 140.077 102.124 139.966C102.124 139.744 102.278 139.596 102.471 139.559C102.703 139.559 102.858 139.707 102.896 139.892C102.896 140.003 103.553 150.413 107.223 159.045C107.301 159.23 107.223 159.452 107.03 159.526C106.953 159.6 106.914 159.6 106.876 159.6Z" fill="#FF9D00"/>
<path d="M98.2216 126.852C98.2216 126.852 97.2944 127.259 97.1012 128.778C96.9467 129.853 97.5648 130.445 97.5648 130.445C97.5648 130.445 102.51 131.668 109.309 132.409C116.031 133.15 117.499 133.002 117.499 133.002L117.113 129.26C117.113 129.26 110.739 129.038 105.291 128.149C100.926 127.519 98.2216 126.852 98.2216 126.852Z" fill="#6366F1" fill-opacity="0.5"/>
<path d="M110.7 117.813C110.7 117.813 109.155 123.925 107.996 136.15C106.837 148.375 102.51 198.758 102.51 198.758C102.51 198.758 108.073 194.423 111.589 191.719C115.297 188.866 118.929 185.977 118.929 185.977C118.929 185.977 118.852 155.229 118.465 141.707C118.079 128.186 116.302 112.626 110.7 117.813Z" fill="#CBE6DB"/>
<path d="M114.95 133.076C114.95 133.076 113.095 153.414 111.859 167.454C110.545 182.087 109.889 194.386 109.889 194.386L119.199 187.125C119.199 187.125 119.779 135.595 119.199 133.039C118.62 130.482 114.95 133.076 114.95 133.076Z" fill="#95CCB6"/>
<path d="M111.55 117.294C111.55 117.294 110.468 115.627 109.116 115.257C107.764 114.886 106.296 115.923 104.403 116.776C102.51 117.665 101.737 119.739 102.355 121.147C103.012 122.555 104.287 123.184 106.373 123.333C108.459 123.481 108.459 123.481 108.459 123.481L111.55 117.294Z" fill="#FFCC99"/>
<path d="M110.7 117.813C110.7 117.813 112.091 115.368 117.693 114.553C123.294 113.738 130.673 114.182 132.025 113.738C133.378 113.293 138.284 112.478 140.525 115.775C142.765 119.072 146.667 127.037 147.401 134.854C148.56 147.264 147.401 160.971 147.401 160.971L122.715 182.717L114.37 189.496C114.37 189.496 115.336 164.861 115.529 151.71C115.684 141.596 115.722 133.594 113.713 126.407C113.713 126.407 110.893 121.777 110.7 121.295C110.7 121.295 111.357 118.776 110.7 117.813Z" fill="white"/>
<path d="M134.42 169.751C134.42 169.751 128.239 162.268 124.723 162.453C121.208 162.638 125.573 170.047 126.732 172.27C127.891 174.493 128.393 174.604 128.393 174.604L134.42 169.751Z" fill="#CBE6DB"/>
<path d="M111.975 123.11C111.975 123.11 113.752 122.073 114.293 120.406C114.834 118.739 111.936 118.85 111.125 119.332C110.275 119.776 110.275 119.776 110.275 119.776L111.048 121.814L111.975 123.11Z" fill="#CBE6DB"/>
<path d="M109.271 118.406C109.271 118.406 109.116 117.628 107.764 117.294C106.412 116.961 104.944 117.961 103.051 118.813C101.158 119.665 100.385 121.777 101.003 123.184C101.66 124.592 102.935 125.222 105.021 125.37C107.107 125.518 107.107 125.518 107.107 125.518L109.271 118.406Z" fill="#FFC183"/>
<path d="M109.889 126.63C109.889 126.63 110.7 132.631 115.143 134.113C115.143 134.113 114.293 127.445 113.675 125.963L109.889 126.63Z" fill="#95CCB6"/>
<path d="M107.069 123.555L112.053 120.48C112.323 119.776 111.975 118.813 111.203 118.072C110.43 117.331 107.764 118.776 106.296 119.517C104.828 120.258 103.785 120.851 103.669 122.444C103.553 124.036 104.056 125.074 104.906 125.852C105.756 126.63 108.73 126.519 110.391 126.667C111.087 126.741 113.83 126.667 113.791 126.333C113.675 125.37 110.701 121.295 110.701 121.295L107.069 123.555Z" fill="#FFCC99"/>
<path d="M111.975 123.11L110.7 121.295C110.7 121.295 108.653 122.147 108.112 122.925C107.571 123.703 108.421 123.777 109.348 123.814C110.314 123.851 111.975 123.11 111.975 123.11Z" fill="#FFA74F"/>
<path d="M146.435 113.775C141.993 113.775 138.979 111.552 138.863 111.441C138.709 111.33 138.67 111.07 138.786 110.922C138.902 110.774 139.172 110.737 139.327 110.848C139.366 110.885 142.92 113.515 147.865 112.923C148.058 112.886 148.251 113.034 148.29 113.256C148.328 113.441 148.174 113.627 147.942 113.664C147.44 113.738 146.938 113.775 146.435 113.775Z" fill="#4338CA"/>
<path d="M96.097 97.3635C95.9811 97.3635 95.9038 97.3265 95.8265 97.2524C93.7017 95.2889 90.8043 91.3621 87.9841 86.7314C85.357 82.434 83.5413 78.6183 83.3095 77.0254C83.2709 76.8401 83.4254 76.6179 83.6572 76.6179C83.8504 76.5808 84.0822 76.729 84.0822 76.9513C84.5071 79.989 91.6928 92.3623 96.3674 96.7337C96.5219 96.8819 96.5219 97.1042 96.3674 97.2524C96.3287 97.3265 96.2128 97.3635 96.097 97.3635Z" fill="#4338CA"/>
<path d="M106.682 49.5745L109.425 62.8739C109.425 62.8739 107.957 68.653 104.287 70.8387C100.269 73.2467 97.0624 72.1353 97.0624 72.1353L94.3582 69.7274L102.51 62.9109L106.682 49.5745Z" fill="#FFCC99"/>
<path d="M99.5735 72.3575C99.5735 72.3575 102.664 75.4693 104.209 76.4696C104.209 76.4696 105.562 75.3953 109.232 71.7277C112.902 68.0602 113.79 62.8738 113.79 62.8738C113.79 62.8738 110.893 63.0961 109.425 62.8738C109.425 62.8738 107.223 68.9863 99.5735 72.3575Z" fill="#6366F1" fill-opacity="0.5"/>
<path d="M104.828 62.207C104.828 62.207 104.828 68.2455 98.1443 71.913C98.1443 71.913 95.44 71.1351 94.5901 69.7273C94.5515 69.7273 102.51 64.7261 104.828 62.207Z" fill="#FFA74F"/>
<path d="M99.574 72.3576C99.574 72.3576 98.5309 75.3583 97.4492 75.8399C97.4492 75.8399 95.7493 75.4324 93.5086 73.5801C91.2679 71.7278 89.1818 68.5789 89.1818 68.5789C89.1818 68.5789 90.2635 67.3193 91.8088 66.9118C91.7702 66.8748 95.3244 71.5055 99.574 72.3576Z" fill="#6366F1" fill-opacity="0.5"/>
<path d="M87.5209 44.9437C87.5209 44.9437 86.2074 49.9079 86.4778 55.5759C86.7483 61.2068 87.7141 62.2441 88.2549 63.5037C88.7572 64.7632 89.6844 66.6896 90.3411 67.7639C90.8047 68.5049 93.0068 69.9126 94.5907 69.7644C96.1747 69.5792 102.433 66.7267 104.519 62.7628C106.644 58.7989 106.181 48.7595 104.519 45.981C102.858 43.2026 92.2728 40.3871 87.5209 44.9437Z" fill="#FFCC99"/>
<path d="M86.4388 54.6868V54.02C86.4388 54.02 87.8296 53.1679 89.1431 53.5384C90.4567 53.9459 90.8044 54.3534 90.6498 55.1684C90.6498 55.1684 89.5681 58.2432 89.2204 59.688C88.8727 61.1328 89.7613 61.0587 90.0317 61.1328C90.0317 61.1328 88.7955 62.133 87.4433 61.7255C87.4433 61.7255 86.5934 59.9844 86.4388 54.6868Z" fill="url(#paint0_linear_8_4563)"/>
<path d="M98.2992 73.0244C98.2992 73.0244 93.0452 71.0239 93.1224 72.0612C93.1997 73.0985 93.586 74.2098 93.586 74.2098C93.586 74.2098 93.5088 75.2471 93.4701 76.1733C93.3929 77.0994 93.8951 78.433 94.011 78.5071C94.1269 78.5812 94.5518 78.8406 94.5518 78.8406C94.5518 78.8406 94.5905 79.6926 94.745 79.7667C94.9382 79.8778 98.1447 78.7294 98.8401 76.6178L98.2992 73.0244Z" fill="#A7D4D9"/>
<path d="M101.196 72.9873C101.196 72.9873 106.412 69.9496 106.566 70.9869C106.721 72.0242 106.566 73.1726 106.566 73.1726C106.566 73.1726 106.875 74.1728 107.146 75.0619C107.416 75.951 107.223 77.3587 107.068 77.4699C106.953 77.581 106.528 77.8774 106.528 77.8774C106.528 77.8774 106.682 78.6924 106.528 78.8406C106.373 78.9888 102.664 78.5442 101.389 76.6178L101.196 72.9873Z" fill="#A7D4D9"/>
<path d="M101.003 72.765C101.003 72.765 98.4533 72.765 98.2988 73.0243C98.1442 73.2836 98.2215 75.6546 98.6465 76.3955C99.0714 77.1364 100.462 77.0253 101.042 76.9141C101.042 76.9141 101.776 76.84 101.814 76.2473C101.853 75.6546 101.776 73.9134 101.776 73.4689C101.737 72.6539 101.003 72.765 101.003 72.765Z" fill="#A7D4D9"/>
<path d="M101.003 72.765C101.003 72.765 98.4533 72.765 98.2988 73.0243C98.1442 73.2836 98.2215 75.6546 98.6465 76.3955C99.0714 77.1364 100.462 77.0253 101.042 76.9141C101.042 76.9141 101.776 76.84 101.814 76.2473C101.853 75.6546 101.776 73.9134 101.776 73.4689C101.737 72.6539 101.003 72.765 101.003 72.765Z" fill="#7BBEC5"/>
<path d="M104.204 73.5204L101.765 74.0945L101.857 74.4543L104.296 73.8802L104.204 73.5204Z" fill="#7BBEC5"/>
<path d="M101.898 75.5692L101.883 75.9393L104.083 76.022L104.099 75.6519L101.898 75.5692Z" fill="#7BBEC5"/>
<path d="M95.4011 76.3585L95.3239 75.988C96.8692 75.6176 98.1054 74.7285 98.1441 74.6914L98.3759 74.9878C98.2986 75.0619 97.0237 75.988 95.4011 76.3585Z" fill="#7BBEC5"/>
<path d="M106.257 55.687C106.257 55.687 104.789 56.5761 104.712 56.8354C104.635 57.0947 104.751 57.5022 105.601 57.5763C105.601 57.5393 106.412 56.8725 106.257 55.687Z" fill="#FFA74F"/>
<path d="M104.79 51.8712C104.79 51.8712 103.862 53.3901 103.553 53.0938C102.974 52.464 103.167 51.4637 103.206 50.1301C103.206 50.1301 101.699 50.3894 98.0288 47.9814C94.3201 45.5735 93.8565 44.5732 93.8565 44.5732C93.8565 44.5732 92.1953 45.8328 90.959 46.3885C88.8728 47.2776 87.2889 47.0923 87.2889 47.0923L86.6708 50.3524C86.6708 50.3524 85.4732 49.9078 84.3914 46.9442C83.8892 45.5735 83.5415 43.9064 83.9279 41.6096C84.3528 39.2016 87.2889 36.0897 92.118 35.6082C92.118 35.6082 92.8134 37.0529 94.5132 36.8307C96.5994 36.5713 99.381 36.1638 103.592 37.6086C107.803 39.0534 110.816 46.4626 110.16 51.6119C109.812 54.3533 109.078 56.4649 108.498 57.8356C107.996 58.947 106.837 59.6138 105.562 59.5027L105.794 54.3533L104.79 51.8712Z" fill="#172B4D"/>
<path d="M104.519 52.2417C104.519 52.2417 105.639 50.1671 106.876 51.2415C108.112 52.3158 107.223 55.1683 106.064 55.7981C104.905 56.4649 104.905 56.4649 104.905 56.4649" fill="#FFCC99"/>
<path d="M41.5471 118.183L45.2172 118.776C45.2172 118.776 45.9513 118.813 46.4921 116.627L44.4059 116.257L41.5471 118.183Z" fill="#172B4D"/>
<path d="M43.2469 106.921L39.77 106.477C39.77 106.477 39.1132 108.625 40.079 112.849C41.0835 117.072 41.5471 118.22 41.5471 118.22L45.2172 118.813C45.2172 118.776 42.1266 110.107 43.2469 106.921Z" fill="#6366F1" fill-opacity="0.5"/>
<path d="M68.5905 203.092C68.4746 203.092 68.3973 203.055 68.3201 202.981C68.1655 202.833 68.2042 202.61 68.3587 202.462C68.5518 202.277 73.5355 198.017 79.5236 197.313C79.7554 197.276 79.9099 197.424 79.9485 197.646C79.9872 197.869 79.8326 198.017 79.6008 198.054C73.8832 198.758 68.8995 202.981 68.8609 203.018C68.7836 203.055 68.6677 203.092 68.5905 203.092Z" fill="#4338CA"/>
<path d="M122.444 83.8789L118.62 82.6193C118.04 82.4341 117.383 82.6564 117.074 83.175L116.495 84.1752L114.254 83.3602C113.597 83.1009 112.825 83.4714 112.593 84.1012L112.052 85.6571C112.052 85.6571 113.404 86.8425 115.529 86.398C117.654 85.9534 122.444 83.8789 122.444 83.8789Z" fill="#A7D4D9"/>
<path d="M126.539 93.8811C126.385 93.8811 126.23 93.807 126.192 93.6589L122.135 84.027C122.058 83.8417 122.135 83.6195 122.367 83.5454C122.56 83.4713 122.792 83.5454 122.869 83.7676L126.926 93.3995C127.003 93.5848 126.926 93.807 126.694 93.8811C126.617 93.8811 126.578 93.8811 126.539 93.8811Z" fill="#2970FF"/>
<path d="M111.125 85.657C111.125 85.657 113.598 85.5829 117.268 84.9902C120.938 84.3604 122.754 83.3972 122.754 83.3972L123.41 85.1754C123.41 85.1754 121.595 86.3609 117.925 87.0277C114.255 87.6945 111.975 87.7316 111.975 87.7316L111.125 85.657Z" fill="#6366F1" fill-opacity="0.5"/>
<path d="M108.652 122.962C108.498 122.962 108.382 122.888 108.305 122.777C108.189 122.592 108.266 122.369 108.459 122.295C109.85 121.591 111.511 120.665 111.666 120.369C111.859 119.961 111.782 119.665 111.434 118.961C111.125 118.331 110.275 118.368 109.927 118.405C109.734 118.442 109.541 118.294 109.502 118.072C109.464 117.887 109.618 117.702 109.85 117.665C110.97 117.516 111.82 117.887 112.168 118.665C112.516 119.369 112.786 119.961 112.4 120.702C112.091 121.295 109.811 122.48 108.845 122.962C108.768 122.925 108.73 122.962 108.652 122.962Z" fill="#C97C00"/>
<path d="M104.48 121.073C104.364 121.073 104.248 121.036 104.171 120.925C104.016 120.776 104.055 120.517 104.21 120.406C104.326 120.295 107.184 118.035 109.811 117.591C110.005 117.554 110.236 117.702 110.236 117.887C110.275 118.072 110.12 118.294 109.927 118.294C107.493 118.665 104.712 120.888 104.673 120.925C104.635 121.036 104.557 121.073 104.48 121.073Z" fill="#FF9D00"/>
<path d="M102.471 119.517C102.355 119.517 102.239 119.443 102.162 119.369C102.046 119.183 102.085 118.961 102.278 118.85C102.394 118.776 104.789 117.22 106.643 116.924C108.691 116.553 109.541 117.739 109.58 117.776C109.695 117.961 109.657 118.183 109.464 118.294C109.27 118.405 109.039 118.368 108.923 118.183C108.884 118.146 108.305 117.368 106.759 117.628C105.059 117.924 102.703 119.443 102.664 119.443C102.626 119.48 102.548 119.517 102.471 119.517Z" fill="#FF9D00"/>
<path d="M70.6769 178.827C70.5223 178.827 70.3678 178.753 70.3292 178.605C70.2519 178.42 70.3292 178.197 70.5223 178.123C70.7541 178.012 76.549 175.641 82.6144 177.16C82.8076 177.197 82.9621 177.419 82.8848 177.605C82.8462 177.79 82.6144 177.938 82.4212 177.864C76.6263 176.419 70.9087 178.79 70.8314 178.79C70.7928 178.827 70.7541 178.827 70.6769 178.827Z" fill="#2970FF"/>
<path d="M63.8387 166.861C63.7614 166.861 63.6455 166.824 63.5683 166.787C63.4138 166.639 63.3751 166.417 63.5296 166.269C64.0705 165.676 67.3543 164.231 70.9085 165.305C71.1017 165.38 71.2176 165.565 71.1789 165.75C71.1017 165.935 70.9085 166.046 70.7153 166.009C67.5088 165.046 64.5341 166.343 64.1478 166.75C64.0705 166.824 63.9546 166.861 63.8387 166.861Z" fill="#2970FF"/>
<path d="M88.8344 186.644C88.7958 186.644 88.7572 186.644 88.7185 186.607C85.2802 185.458 81.6101 186.607 81.5715 186.607C81.3783 186.681 81.1465 186.57 81.0692 186.384C80.992 186.199 81.1079 185.977 81.301 185.903C81.4556 185.866 85.2416 184.68 88.9503 185.903C89.1435 185.977 89.2594 186.199 89.1821 186.384C89.1435 186.533 88.989 186.644 88.8344 186.644Z" fill="#2970FF"/>
<path d="M105.987 51.9084C105.871 51.9825 105.175 52.6123 104.866 53.2791C104.557 53.946 104.866 54.3164 104.866 54.3164C104.866 54.3164 105.407 53.6866 105.716 53.9089C106.025 54.1312 105.33 54.9092 105.446 55.0944C105.562 55.2796 105.832 55.3167 106.102 54.8721C106.373 54.4276 106.837 53.7607 106.721 52.7975C106.605 51.8344 106.218 51.7603 105.987 51.9084Z" fill="#FFA74F"/>
<path d="M95.2081 56.7983C95.6775 56.7983 96.058 56.4335 96.058 55.9833C96.058 55.5332 95.6775 55.1683 95.2081 55.1683C94.7387 55.1683 94.3582 55.5332 94.3582 55.9833C94.3582 56.4335 94.7387 56.7983 95.2081 56.7983Z" fill="#C97C00"/>
<path d="M88.0611 56.7984C88.4878 56.7984 88.8338 56.4666 88.8338 56.0574C88.8338 55.6482 88.4878 55.3165 88.0611 55.3165C87.6344 55.3165 87.2885 55.6482 87.2885 56.0574C87.2885 56.4666 87.6344 56.7984 88.0611 56.7984Z" fill="#C97C00"/>
<path d="M97.4489 55.0572C97.333 55.0572 97.2171 55.0201 97.1398 54.909C97.1398 54.909 96.483 54.094 95.1695 53.9088C94.0105 53.7235 93.3152 54.094 93.3152 54.131C93.122 54.2422 92.8902 54.1681 92.7743 54.0199C92.6584 53.8347 92.697 53.6124 92.8902 53.5012C92.9288 53.4642 93.8174 52.9456 95.2854 53.2049C96.908 53.4642 97.7193 54.4644 97.7193 54.5015C97.8352 54.6497 97.8352 54.909 97.642 55.0201C97.642 55.0201 97.5261 55.0572 97.4489 55.0572Z" fill="#C97C00"/>
<path d="M91.268 53.2421C91.268 53.2421 89.6067 58.2432 89.4136 59.2435C89.2204 60.2437 89.259 60.6512 90.6498 60.7253C93.0451 60.8735 93.2382 60.2067 93.2382 60.2067" fill="url(#paint1_linear_8_4563)"/>
<path d="M89.568 62.8738C89.568 62.8738 90.3793 63.022 91.8087 63.022C93.2381 63.022 94.2812 62.9479 94.513 62.9479C94.7448 62.9479 94.513 64.3556 92.8131 64.5038C90.2247 64.7261 89.7612 63.6517 89.568 62.8738Z" fill="#C97C00"/>
<path d="M90.1479 53.5012C90.1093 53.4642 89.2207 52.9456 87.7527 53.2049C87.2504 53.279 86.8255 53.4272 86.4778 53.6124C86.4778 53.8717 86.4778 54.1681 86.4778 54.4644C86.7868 54.2422 87.2504 54.0199 87.8686 53.9088C89.0275 53.7235 89.6843 54.094 89.7229 54.131C89.9161 54.2422 90.1479 54.2051 90.2638 54.0199C90.3797 53.8347 90.3024 53.6124 90.1479 53.5012Z" fill="#C97C00"/>
<path d="M67.8174 104.958L65.9244 111.293C65.9244 111.293 63.6451 110.959 63.1815 107.44C63.1815 107.44 65.6926 106.44 67.8174 104.958Z" fill="#4338CA"/>
<path d="M113.018 28.1249C112.863 28.1249 112.709 28.0879 112.593 28.0138C112.245 27.7915 112.129 27.3099 112.361 26.9765C112.4 26.9024 117.151 20.086 122.019 13.2325C126.964 6.23087 132.682 2.85971 132.914 2.74857C133.261 2.52629 133.764 2.63743 133.957 3.00789C134.188 3.3413 134.073 3.8229 133.686 4.00812C133.648 4.04517 128.007 7.34224 123.255 14.0846C118.388 20.938 113.674 27.7545 113.597 27.8286C113.52 28.0138 113.25 28.1249 113.018 28.1249Z" fill="white"/>
<path d="M122.908 116.812C128.974 115.59 130.21 114.367 132.064 113.775C132.064 113.775 130.751 113.997 128.51 114.034C128.51 114.034 123.681 114.701 122.174 115.553C120.668 116.405 120.938 117.183 122.908 116.812Z" fill="#CBE6DB"/>
<path d="M142.533 165.268C142.533 165.268 141.065 145.782 139.095 143.004C137.163 140.225 135.155 142.633 136.043 150.228C136.816 156.674 137.588 169.603 137.588 169.603L142.533 165.268Z" fill="#CBE6DB"/>
<path d="M161.193 170.603L165.172 169.01C165.057 166.824 164.825 165.194 164.825 165.194C164.825 165.194 115.761 185.495 93.1223 215.169C93.1223 215.169 106.064 216.392 128.085 204.166L126.771 197.165L132.026 201.87C138.554 197.98 143.654 194.868 147.749 192.312L143.499 183.717L152.23 189.459C159.88 184.421 162.468 181.791 164.245 178.086C164.979 176.53 165.211 174.122 165.25 171.788L161.193 170.603Z" fill="#5041FF"/>
<path d="M93.1225 215.206C93.1225 215.206 92.5043 211.798 102.51 198.758C108.691 190.682 123.101 178.123 123.101 178.123L125.226 184.495L126.038 175.863L139.752 165.861L141.22 173.789L142.727 164.046L147.44 160.934C147.44 160.934 154.008 156.303 158.875 156.303C162.739 156.303 163.395 159.489 163.395 159.489L160.266 164.787L164.4 161.934L164.825 165.12C164.825 165.12 134.228 177.012 114.37 195.349C94.5132 213.687 93.1225 215.206 93.1225 215.206Z" fill="#6366F1" fill-opacity="0.5"/>
<path d="M78.2869 232.321C78.2096 232.321 78.1323 232.284 78.0551 232.247C77.9005 232.136 77.8619 231.877 77.9778 231.729C78.1323 231.543 94.2036 211.279 114.099 195.164C135.193 178.049 158.45 166.676 171.971 162.12C172.165 162.045 172.396 162.157 172.474 162.342C172.551 162.527 172.435 162.749 172.242 162.823C158.798 167.343 135.618 178.679 114.602 195.72C94.783 211.798 78.7504 231.988 78.5959 232.173C78.5186 232.284 78.4028 232.321 78.2869 232.321Z" fill="#4338CA"/>
<path d="M40.6976 167.232C40.5817 167.232 40.5045 167.195 40.3886 167.158C40.0023 167.01 39.8091 166.565 39.9636 166.195C40.0023 166.12 42.8997 159.526 52.867 137.966C53.0215 137.595 53.4851 137.41 53.8714 137.595C54.2577 137.743 54.4509 138.188 54.2577 138.558C44.2905 160.082 41.393 166.713 41.3544 166.75C41.2771 167.084 41.0067 167.232 40.6976 167.232Z" fill="white"/>
<path d="M160.343 107.625C160.188 107.625 160.072 107.588 159.957 107.514C159.609 107.292 159.493 106.847 159.686 106.514C163.433 100.586 176.878 78.6924 177.032 78.4702C177.264 78.0997 177.728 77.9886 178.075 78.2108C178.462 78.4331 178.577 78.8777 178.346 79.2111C178.191 79.4334 164.747 101.364 161 107.292C160.845 107.514 160.575 107.625 160.343 107.625Z" fill="white"/>
<path d="M166.679 45.0178L163.511 46.4997C161.386 34.2375 150.221 24.8279 136.816 24.8279V21.4938C151.612 21.4938 163.936 31.5702 166.717 44.9437C166.717 45.0178 166.679 45.0178 166.679 45.0178Z" fill="#7BBEC5"/>
<g opacity="0.7">
<g style="mix-blend-mode:multiply" opacity="0.7">
<path opacity="0.7" d="M174.097 65.6152V67.5786H177.69L190.786 50.3894H186.228L174.097 65.6152Z" fill="#C4E2E5"/>
</g>
</g>
<g style="mix-blend-mode:multiply" opacity="0.7">
<g opacity="0.7">
<path opacity="0.7" d="M191.984 51.0563L178.81 67.5787H181.398L191.984 53.6865V51.0563Z" fill="#C4E2E5"/>
</g>
</g>
<path d="M92.7361 225.282C92.7361 225.282 95.3631 226.431 100.385 226.246C105.408 226.06 108.923 223.578 108.923 223.578L108.73 226.468C108.73 226.468 101.351 230.469 93.161 231.914L92.7361 225.282Z" fill="#FFAC27"/>
<path d="M119.701 210.279C119.701 210.279 123.062 209.427 126.539 207.945C130.016 206.463 134.768 202.722 134.768 202.722C134.768 202.722 125.496 214.502 120.281 218.54L119.701 210.279Z" fill="#FFAC27"/>
<path d="M127.003 149.598C127.003 149.894 128.162 152.636 129.167 152.932C130.171 153.229 130.751 152.858 130.557 149.598C130.364 146.338 131.021 142.189 129.167 143.189C127.312 144.189 126.81 146.56 127.003 149.598Z" fill="#CBE6DB"/>
<path d="M105.253 128.186C105.523 129.112 105.601 130.038 108.459 131.631L108.846 128.63L105.253 128.186Z" fill="#6E62EC"/>
<path d="M125.265 84.2124H125.226C125.033 84.1753 124.84 84.0271 124.878 83.8049L125.033 82.2119C125.805 74.6546 126.501 68.1715 126.115 66.0229C126.076 65.8377 126.23 65.6154 126.424 65.5783C126.617 65.5413 126.849 65.6895 126.887 65.8747C127.273 68.1345 126.617 74.3582 125.805 82.286L125.651 83.879C125.651 84.0642 125.458 84.2124 125.265 84.2124Z" fill="#4338CA"/>
<defs>
<linearGradient id="paint0_linear_8_4563" x1="86.987" y1="60.1543" x2="88.976" y2="55.7232" gradientUnits="userSpaceOnUse">
<stop stop-color="#FFCC99" stop-opacity="0.3"/>
<stop offset="1" stop-color="#FFB759"/>
</linearGradient>
<linearGradient id="paint1_linear_8_4563" x1="93.5978" y1="55.7124" x2="89.8136" y2="58.8695" gradientUnits="userSpaceOnUse">
<stop offset="0.00200123" stop-color="#FFCC99" stop-opacity="0"/>
<stop offset="0.2661" stop-color="#FFD19F" stop-opacity="0.2646"/>
<stop offset="0.6161" stop-color="#FFE0B0" stop-opacity="0.6153"/>
<stop offset="1" stop-color="#FFF7CA"/>
</linearGradient>
<clipPath id="clip0_8_4563">
<rect width="16.893" height="20.6045" fill="white" transform="translate(16.9103 84.6327)"/>
</clipPath>
</defs>
</svg>
