<svg width="20" height="20" viewBox="0 0 20 20" fill="none" xmlns="http://www.w3.org/2000/svg">
<path d="M15.4165 11.775C15.0163 11.775 14.6915 12.0998 14.6915 12.5V18.3333C14.6915 18.7336 15.0163 19.0583 15.4165 19.0583C15.8167 19.0583 16.1415 18.7336 16.1415 18.3333V12.5C16.1415 12.0998 15.8167 11.775 15.4165 11.775Z" fill="#2970FF" stroke="#2970FF" stroke-width="0.2"/>
<path d="M11.775 15.417C11.775 15.8172 12.0998 16.142 12.5 16.142H18.3333C18.7336 16.142 19.0583 15.8172 19.0583 15.417C19.0583 15.0168 18.7336 14.692 18.3333 14.692H12.5C12.0998 14.692 11.775 15.0168 11.775 15.417Z" fill="#2970FF" stroke="#2970FF" stroke-width="0.2"/>
<path d="M13.4332 5.62533C13.4332 3.0401 11.3351 0.941992 8.74984 0.941992C6.16461 0.941992 4.0665 3.0401 4.0665 5.62533C4.0665 8.21055 6.16461 10.3087 8.74984 10.3087C11.3351 10.3087 13.4332 8.21055 13.4332 5.62533ZM5.5165 5.62533C5.5165 3.84055 6.96507 2.39199 8.74984 2.39199C10.5346 2.39199 11.9832 3.84055 11.9832 5.62533C11.9832 7.4101 10.5346 8.85866 8.74984 8.85866C6.96507 8.85866 5.5165 7.4101 5.5165 5.62533Z" fill="#2970FF" stroke="#2970FF" stroke-width="0.2"/>
<path d="M1.6665 19.0587V19.0589L1.67369 19.0584L1.6665 18.9587L1.67378 19.0584L1.6739 19.0584L1.67417 19.0584L1.67488 19.0583L1.67699 19.0581L1.68381 19.0575C1.68949 19.0569 1.69738 19.056 1.70717 19.0546C1.72672 19.0519 1.75402 19.0473 1.78651 19.0399C1.85109 19.0251 1.93842 18.9983 2.02679 18.9503C2.20732 18.852 2.3915 18.6635 2.3915 18.3237V17.5003C2.3915 14.6789 4.6784 12.392 7.49984 12.392H12.0832C12.4834 12.392 12.8082 12.0672 12.8082 11.667C12.8082 11.2668 12.4834 10.942 12.0832 10.942H7.49984C3.87794 10.942 0.941504 13.8784 0.941504 17.5003V18.3237V18.3237V18.3237V18.3237V18.3237V18.3238V18.3238V18.3238V18.3238V18.3238V18.3239V18.3239V18.3239V18.3239V18.3239V18.324V18.324V18.324V18.324V18.324V18.3241V18.3241V18.3241V18.3241V18.3241V18.3241V18.3242V18.3242V18.3242V18.3242V18.3242V18.3243V18.3243V18.3243V18.3243V18.3243V18.3244V18.3244V18.3244V18.3244V18.3244V18.3245V18.3245V18.3245V18.3245V18.3245V18.3246V18.3246V18.3246V18.3246V18.3246V18.3247V18.3247V18.3247V18.3247V18.3247V18.3248V18.3248V18.3248V18.3248V18.3248V18.3249V18.3249V18.3249V18.3249V18.3249V18.3249V18.325V18.325V18.325V18.325V18.325V18.3251V18.3251V18.3251V18.3251V18.3251V18.3252V18.3252V18.3252V18.3252V18.3252V18.3253V18.3253V18.3253V18.3253V18.3253V18.3254V18.3254V18.3254V18.3254V18.3254V18.3255V18.3255V18.3255V18.3255V18.3255V18.3256V18.3256V18.3256V18.3256V18.3256V18.3257V18.3257V18.3257V18.3257V18.3257V18.3257V18.3258V18.3258V18.3258V18.3258V18.3258V18.3259V18.3259V18.3259V18.3259V18.3259V18.326V18.326V18.326V18.326V18.326V18.3261V18.3261V18.3261V18.3261V18.3261V18.3262V18.3262V18.3262V18.3262V18.3262V18.3263V18.3263V18.3263V18.3263V18.3263V18.3264V18.3264V18.3264V18.3264V18.3264V18.3265V18.3265V18.3265V18.3265V18.3265V18.3266V18.3266V18.3266V18.3266V18.3266V18.3266V18.3267V18.3267V18.3267V18.3267V18.3267V18.3268V18.3268V18.3268V18.3268V18.3268V18.3269V18.3269V18.3269V18.3269V18.3269V18.327V18.327V18.327V18.327V18.327V18.3271V18.3271V18.3271V18.3271V18.3271V18.3272V18.3272V18.3272V18.3272V18.3272V18.3273V18.3273V18.3273V18.3273V18.3273V18.3274V18.3274V18.3274V18.3274V18.3274V18.3274V18.3275V18.3275V18.3275V18.3275V18.3275V18.3276V18.3276V18.3276V18.3276V18.3276V18.3277V18.3277V18.3277V18.3277V18.3277V18.3278V18.3278V18.3278V18.3278V18.3278V18.3279V18.3279V18.3279V18.3279V18.3279V18.328V18.328V18.328V18.328V18.328V18.3281V18.3281V18.3281V18.3281V18.3281V18.3282V18.3282V18.3282V18.3282V18.3282V18.3282V18.3283V18.3283V18.3283V18.3283V18.3283V18.3284V18.3284V18.3284V18.3284V18.3284V18.3285V18.3285V18.3285V18.3285V18.3285V18.3286V18.3286V18.3286V18.3286V18.3286V18.3287V18.3287V18.3287V18.3287V18.3287V18.3288V18.3288V18.3288V18.3288V18.3288V18.3289V18.3289V18.3289V18.3289V18.3289V18.329V18.329V18.329V18.329V18.329V18.3291V18.3291V18.3291V18.3291V18.3291V18.3291V18.3292V18.3292V18.3292V18.3292V18.3292V18.3293V18.3293V18.3293V18.3293V18.3293V18.3294V18.3294V18.3294V18.3294V18.3294V18.3295V18.3295V18.3295V18.3295V18.3295V18.3296V18.3296V18.3296V18.3296V18.3296V18.3297V18.3297V18.3297V18.3297V18.3297V18.3298V18.3298V18.3298V18.3298V18.3298V18.3299V18.3299V18.3299V18.3299V18.3299V18.3299V18.33V18.33V18.33V18.33V18.33V18.3301V18.3301V18.3301V18.3301V18.3301V18.3302V18.3302V18.3302V18.3302V18.3302V18.3303V18.3303V18.3303V18.3303V18.3303V18.3304V18.3304V18.3304V18.3304V18.3304V18.3305V18.3305V18.3305V18.3305V18.3305V18.3306V18.3306V18.3306V18.3306V18.3306V18.3307V18.3307V18.3307V18.3307V18.3307V18.3307V18.3308V18.3308V18.3308V18.3308V18.3308V18.3309V18.3309V18.3309V18.3309V18.3309V18.331V18.331V18.331V18.331V18.331V18.3311V18.3311V18.3311V18.3311V18.3311V18.3312V18.3312V18.3312V18.3312V18.3312V18.3313V18.3313V18.3313V18.3313V18.3313V18.3314V18.3314V18.3314V18.3314V18.3314V18.3315V18.3315V18.3315V18.3315V18.3315V18.3316V18.3316V18.3316V18.3316V18.3316V18.3316V18.3317V18.3317V18.3317V18.3317V18.3317V18.3318V18.3318V18.3318V18.3318V18.3318V18.3319V18.3319V18.3319V18.3319V18.3319V18.332V18.332V18.332V18.332V18.332V18.3321V18.3321V18.3321V18.3321V18.3321V18.3322V18.3322V18.3322V18.3322V18.3322V18.3323V18.3323V18.3323V18.3323V18.3323V18.3324V18.3324V18.3324V18.3324V18.3324V18.3324V18.3325V18.3325V18.3325V18.3325V18.3325V18.3326V18.3326V18.3326V18.3326V18.3326V18.3327V18.3327V18.3327V18.3327V18.3327V18.3328V18.3328V18.3328V18.3328V18.3328V18.3329V18.3329V18.3329V18.3329V18.3329V18.333V18.333V18.333V18.333V18.333V18.3331V18.3331V18.3331V18.3331V18.3331V18.3332V18.3332V18.3332V18.3332V18.3332V18.3332V18.3333V18.3333V18.3333V18.3333V18.3333V18.3334V18.3334V18.3334V18.3334V18.3334V18.3335V18.3335V18.3335V18.3335V18.3335V18.3336V18.3336V18.3336V18.3336V18.3336V18.3337C0.941504 18.3648 0.94337 18.3956 0.947269 18.4252C0.964553 18.5727 1.01943 18.6885 1.09355 18.778C1.22666 18.9488 1.43399 19.0587 1.6665 19.0587Z" fill="#2970FF" stroke="#2970FF" stroke-width="0.2"/>
</svg>
